<svg xmlns="http://www.w3.org/2000/svg" width="29.216" height="31.929" viewBox="0 0 29.216 31.929">
  <g id="Icon_feather-package" data-name="Icon feather-package" transform="translate(1.661 1.546)">
    <path id="Path_7" data-name="Path 7" d="M24.2,13.781,11.25,6.315" transform="translate(-4.777 -3.139)" fill="none" stroke="#fff" stroke-linecap="round" stroke-linejoin="round" stroke-width="3"/>
    <path id="Path_8" data-name="Path 8" d="M30.394,23.14V11.631a2.877,2.877,0,0,0-1.439-2.489L18.885,3.389a2.877,2.877,0,0,0-2.877,0L5.939,9.143A2.877,2.877,0,0,0,4.5,11.631V23.14a2.877,2.877,0,0,0,1.439,2.489l10.07,5.754a2.877,2.877,0,0,0,2.877,0l10.07-5.754A2.877,2.877,0,0,0,30.394,23.14Z" transform="translate(-4.5 -3.003)" fill="none" stroke="#fff" stroke-linecap="round" stroke-linejoin="round" stroke-width="3"/>
    <path id="Path_9" data-name="Path 9" d="M4.9,10.44,17.463,17.7,30.022,10.44" transform="translate(-4.517 -3.308)" fill="none" stroke="#fff" stroke-linecap="round" stroke-linejoin="round" stroke-width="3"/>
    <path id="Path_10" data-name="Path 10" d="M18,32.5V18" transform="translate(-5.053 -3.618)" fill="none" stroke="#fff" stroke-linecap="round" stroke-linejoin="round" stroke-width="3"/>
  </g>
</svg>
